<svg xmlns="http://www.w3.org/2000/svg" xml:space="preserve" fill-rule="evenodd" stroke-linejoin="round" stroke-miterlimit="2" clip-rule="evenodd" viewBox="0 0 215 75"><path fill="none" d="M0 0h215v75H0z"/><clipPath id="a"><path d="M0 0h215v75H0z"/></clipPath><g fill-rule="nonzero" clip-path="url(#a)"><path fill="#53bcb4" d="M18.701 45.898C8.39 45.898 0 37.46 0 27.089S8.389 8.28 18.701 8.28c2.137 0 3.869 1.742 3.869 3.891s-1.732 3.891-3.869 3.891c-6.045 0-10.962 4.946-10.962 11.026s4.918 11.026 10.962 11.026 10.962-4.946 10.962-11.026v-3.099c0-2.149 1.732-3.891 3.869-3.891s3.87 1.742 3.87 3.891v3.099c-.002 10.372-8.39 18.809-18.701 18.809"/><path fill="#e93162" d="M48.362 39.697h-7.379c-2.137 0-3.869-1.742-3.869-3.891s1.732-3.891 3.869-3.891h7.379c6.045 0 10.962-4.946 10.962-11.026 0-2.946-1.14-5.714-3.211-7.797a10.85 10.85 0 0 0-7.751-3.23c-6.045 0-10.962 4.946-10.962 11.026v3.099c0 2.149-1.732 3.891-3.869 3.891s-3.87-1.742-3.87-3.891v-3.099c0-10.372 8.389-18.809 18.701-18.809 4.994 0 9.69 1.956 13.223 5.509 3.531 3.552 5.477 8.276 5.477 13.3 0 10.372-8.389 18.809-18.701 18.809"/><path fill="#f17d2d" d="M41.034 69.534c-10.311 0-18.701-8.439-18.701-18.81s8.389-18.809 18.701-18.809c2.137 0 3.869 1.743 3.869 3.891 0 2.149-1.732 3.891-3.869 3.891-6.045 0-10.962 4.947-10.962 11.026 0 6.08 4.918 11.026 10.962 11.026s10.961-4.946 10.961-11.026c0-2.148 1.732-3.891 3.869-3.891s3.87 1.743 3.87 3.891c0 10.372-8.389 18.81-18.7 18.81"/><path fill="#48225f" d="M75.472 53.334c0-6.257 4.385-10.55 10.656-10.55 2.91 0 5.41 1.022 7.582 3.108l-2.377 2.534c-1.352-1.389-3.197-2.126-5.165-2.126-3.975 0-6.885 2.821-6.885 7.034s2.868 7.033 6.885 7.033c2.091 0 4.016-.817 5.37-2.249l2.377 2.617c-2.213 2.169-4.672 3.15-7.747 3.15-6.352 0-10.696-4.213-10.696-10.55"/><path fill="#48225f" d="M111.09 53.334c0-4.131-2.787-7.034-6.803-7.034-3.975 0-6.804 2.903-6.804 7.034 0 4.13 2.829 7.033 6.804 7.033 4.016 0 6.803-2.903 6.803-7.033m3.811-10.1v20.2h-3.36l-.041-2.985c-1.599 2.126-4.385 3.436-7.705 3.436-5.942 0-10.122-4.335-10.122-10.55s4.18-10.55 10.122-10.55c3.32 0 6.106 1.309 7.705 3.435l.041-2.984h3.36Zm35.578 8.464v11.736h-3.811V51.943c0-3.598-1.681-5.561-4.755-5.561-3.319 0-5.573 2.373-5.573 5.807v11.245h-3.812V51.943c0-3.598-1.681-5.561-4.755-5.561-3.279 0-5.574 2.373-5.574 5.807v11.245h-3.811v-20.2h3.402l.041 2.617c1.517-2.005 3.565-2.986 6.148-2.986 3.073 0 5.574 1.432 6.762 3.843 1.599-2.534 4.139-3.843 7.336-3.843 5.206 0 8.403 3.312 8.403 8.833m20.538 1.636c0-4.131-2.787-7.034-6.803-7.034-3.975 0-6.804 2.903-6.804 7.034 0 4.13 2.829 7.033 6.804 7.033 4.016 0 6.803-2.903 6.803-7.033m3.811 0c0 6.216-4.14 10.55-10.123 10.55-3.073 0-5.696-1.104-7.295-2.986v12.023H153.6V43.234h3.403l.041 2.984c1.556-2.126 4.343-3.435 7.663-3.435 5.983 0 10.123 4.335 10.123 10.55m1.848.982V43.234h3.811v11.04c0 4.09 2.295 6.012 5.696 6.012 3.444 0 5.738-1.922 5.738-6.012v-11.04h3.811v11.081c0 6.134-3.483 9.487-9.55 9.487-6.025 0-9.508-3.354-9.508-9.487m20.66 6.461 1.926-2.822c1.763 1.554 4.427 2.495 7.254 2.495 2.91 0 4.714-1.023 4.714-2.739 0-1.636-1.435-2.413-5.082-2.864-5.451-.653-8.155-2.658-8.155-6.051 0-3.598 3.442-6.011 8.606-6.011 3.074 0 5.656.777 7.95 2.413l-1.761 2.781c-1.844-1.31-3.811-1.882-6.026-1.882-3.279 0-5.04.941-5.04 2.659 0 1.512 1.311 2.289 4.754 2.739 6.025.776 8.524 2.575 8.524 6.256 0 3.64-3.442 6.134-8.565 6.134-3.443 0-6.476-1.063-9.099-3.107M75.514 23.483c0-6.257 4.385-10.55 10.656-10.55 2.91 0 5.41 1.022 7.582 3.108l-2.377 2.534c-1.352-1.389-3.197-2.126-5.165-2.126-3.975 0-6.885 2.821-6.885 7.034s2.868 7.033 6.885 7.033c2.091 0 4.016-.817 5.37-2.249l2.377 2.617c-2.213 2.169-4.672 3.15-7.747 3.15-6.352 0-10.696-4.213-10.696-10.55m20.246-.001c0-6.257 4.385-10.55 10.656-10.55 2.91 0 5.41 1.022 7.582 3.108l-2.377 2.534c-1.352-1.389-3.197-2.126-5.165-2.126-3.975 0-6.885 2.821-6.885 7.034s2.868 7.033 6.885 7.033c2.091 0 4.016-.817 5.37-2.249l2.377 2.617c-2.213 2.169-4.672 3.15-7.747 3.15-6.352 0-10.696-4.213-10.696-10.55m22.229-10.101h3.811v20.201h-3.811zm-.492-5.807c0-1.39 1.025-2.372 2.418-2.372s2.418.981 2.418 2.372c0 1.35-1.025 2.331-2.418 2.331s-2.418-.981-2.418-2.331M23.47 31.578a6.375 6.375 0 0 0 0-8.978 6.284 6.284 0 0 0-8.926 0 6.374 6.374 0 0 0 0 8.978 6.285 6.285 0 0 0 8.926 0m29.379-6.165a6.375 6.375 0 0 0 0-8.978 6.284 6.284 0 0 0-8.926 0 6.374 6.374 0 0 0 0 8.978 6.285 6.285 0 0 0 8.926 0m-7.197 29.764a6.375 6.375 0 0 0 0-8.978 6.284 6.284 0 0 0-8.926 0 6.374 6.374 0 0 0 0 8.978 6.285 6.285 0 0 0 8.926 0"/></g></svg>