<svg xmlns="http://www.w3.org/2000/svg" viewBox="0 0 260 150" role="img" aria-labelledby="title desc">
  <title id="title">Logo MB</title>
  <desc id="desc">Logo MB simplifié avec arc rouge et lettres MB.</desc>
  <defs>
    <linearGradient id="red" x1="0" y1="0" x2="1" y2="1">
      <stop offset="0" stop-color="#ef233c"/>
      <stop offset="1" stop-color="#8f1020"/>
    </linearGradient>
    <linearGradient id="black" x1="0" y1="0" x2="1" y2="1">
      <stop offset="0" stop-color="#050505"/>
      <stop offset="1" stop-color="#4a4a4a"/>
    </linearGradient>
    <filter id="soft" x="-20%" y="-20%" width="140%" height="140%">
      <feDropShadow dx="0" dy="4" stdDeviation="3" flood-color="#000" flood-opacity=".18"/>
    </filter>
  </defs>
  <rect width="260" height="150" rx="26" fill="#ffffff"/>
  <path d="M13 146 C53 104 58 42 24 4" fill="none" stroke="url(#red)" stroke-width="8"/>
  <path d="M38 42 L83 91 L128 42 L128 111 L110 111 L110 75 L85 105 L56 75 L56 111 L38 111 Z" fill="url(#red)" filter="url(#soft)"/>
  <path d="M136 42 H199 C220 42 232 52 232 68 C232 78 227 86 218 91 C230 96 238 105 238 119 C238 139 222 149 199 149 H136 Z M157 61 V83 H197 C207 83 212 79 212 72 C212 65 207 61 197 61 Z M157 101 V130 H199 C210 130 216 125 216 116 C216 107 210 101 199 101 Z" fill="url(#black)" filter="url(#soft)" transform="translate(0 -17)"/>
</svg>
