<svg xmlns="http://www.w3.org/2000/svg" viewBox="0 0 360 170" role="img" aria-labelledby="title desc">
  <title id="title">Logo MB Informatique</title>
  <desc id="desc">Logo MB Informatique avec arc rouge, lettres MB et texte Informatique.</desc>
  <defs>
    <linearGradient id="red" x1="0" y1="0" x2="1" y2="1">
      <stop offset="0" stop-color="#ef233c"/>
      <stop offset="1" stop-color="#8f1020"/>
    </linearGradient>
    <linearGradient id="black" x1="0" y1="0" x2="1" y2="1">
      <stop offset="0" stop-color="#050505"/>
      <stop offset="1" stop-color="#4a4a4a"/>
    </linearGradient>
    <filter id="soft" x="-20%" y="-20%" width="140%" height="140%">
      <feDropShadow dx="0" dy="3" stdDeviation="2.5" flood-color="#000" flood-opacity=".18"/>
    </filter>
  </defs>
  <rect width="360" height="170" rx="18" fill="#ffffff"/>
  <path d="M9 169 C55 116 62 47 23 0" fill="none" stroke="url(#red)" stroke-width="8"/>
  <path d="M29 42 L82 96 L135 42 L135 114 L116 114 L116 80 L84 113 L50 80 L50 114 L29 114 Z" fill="url(#red)" filter="url(#soft)"/>
  <path d="M142 42 H215 C237 42 249 52 249 69 C249 79 244 87 234 92 C247 97 255 106 255 121 C255 141 239 153 214 153 H142 Z M164 62 V84 H211 C221 84 227 80 227 73 C227 66 221 62 211 62 Z M164 103 V132 H214 C226 132 233 127 233 117 C233 108 226 103 214 103 Z" fill="url(#black)" filter="url(#soft)" transform="translate(0 -16)"/>
  <text x="145" y="118" font-family="Arial, Helvetica, sans-serif" font-size="27" font-style="italic" font-weight="500" fill="#101418">INFORMATIQUE</text>
  <line x1="0" y1="139" x2="338" y2="139" stroke="#c9c9c9" stroke-width="4"/>
</svg>
