<svg xmlns="http://www.w3.org/2000/svg" viewBox="0 0 900 520" role="img" aria-labelledby="title desc">
  <title id="title">RGPD, cloud et API</title>
  <desc id="desc">Cloud, cadenas RGPD, API et données personnelles sécurisées.</desc>
  <rect width="900" height="520" fill="#fff7ed"/>
  <rect x="65" y="70" width="770" height="380" rx="26" fill="#fff" stroke="#b45309" stroke-width="8"/>
  <text x="115" y="135" font-family="Arial, sans-serif" font-size="48" font-weight="700" fill="#b45309">RGPD CLOUD API</text>
  <text x="115" y="178" font-family="Arial, sans-serif" font-size="24" fill="#17202a">données personnelles sécurisées</text>
  <g fill="none" stroke="#b45309" stroke-width="8" stroke-linecap="round" stroke-linejoin="round">
    <path d="M530 310h190c34 0 59-25 59-55s-25-54-57-54c-8 0-15 1-22 4-17-34-52-55-90-47-33 7-57 31-65 62-8-5-18-7-28-7-31 0-55 23-55 51s31 46 68 46z" fill="#fffbeb"/>
    <rect x="170" y="230" width="190" height="125" rx="16"/>
    <path d="M212 230v-36c0-35 23-59 53-59s53 24 53 59v36"/>
    <path d="M400 250h70M400 305h70M720 355v45M610 355v45M500 355v45"/>
  </g>
  <g fill="#b45309">
    <circle cx="265" cy="292" r="14"/><circle cx="720" cy="405" r="14"/><circle cx="610" cy="405" r="14"/><circle cx="500" cy="405" r="14"/>
  </g>
</svg>
