<svg xmlns="http://www.w3.org/2000/svg" viewBox="0 0 1200 760" role="img" aria-labelledby="title desc">
  <title id="title">Virus informatique avance</title>
  <desc id="desc">Illustration d'un malware visant une infrastructure industrielle.</desc>
  <defs>
    <linearGradient id="bg" x1="0" y1="0" x2="1" y2="1">
      <stop offset="0" stop-color="#f7fbff"/>
      <stop offset=".5" stop-color="#dff4ff"/>
      <stop offset="1" stop-color="#ede9ff"/>
    </linearGradient>
    <linearGradient id="chip" x1="0" y1="0" x2="1" y2="1">
      <stop offset="0" stop-color="#101418"/>
      <stop offset="1" stop-color="#2b333d"/>
    </linearGradient>
    <filter id="shadow" x="-20%" y="-20%" width="140%" height="140%">
      <feDropShadow dx="0" dy="24" stdDeviation="24" flood-color="#1f2d48" flood-opacity=".18"/>
    </filter>
  </defs>
  <rect width="1200" height="760" rx="48" fill="url(#bg)"/>
  <circle cx="960" cy="145" r="225" fill="#007aff" opacity=".11"/>
  <circle cx="180" cy="620" r="245" fill="#7b61ff" opacity=".12"/>
  <g filter="url(#shadow)">
    <rect x="390" y="150" width="420" height="420" rx="56" fill="url(#chip)"/>
    <rect x="468" y="228" width="264" height="264" rx="32" fill="#0f1720" stroke="#22c6f2" stroke-width="6"/>
    <path d="M506 360h70l32-74 48 148 34-74h70" fill="none" stroke="#30d158" stroke-width="18" stroke-linecap="round" stroke-linejoin="round"/>
    <circle cx="600" cy="360" r="118" fill="none" stroke="#ff2d55" stroke-width="14" opacity=".78"/>
    <path d="M520 280l160 160M680 280L520 440" stroke="#ff2d55" stroke-width="18" stroke-linecap="round"/>
  </g>
  <g stroke="#687382" stroke-width="10" stroke-linecap="round" opacity=".62">
    <path d="M600 92v58M600 570v70M332 360h58M810 360h80M410 170l42 42M790 550l52 52M790 170l-42 42M410 550l-52 52"/>
  </g>
  <text x="118" y="668" font-family="Arial, sans-serif" font-size="40" font-weight="900" fill="#101418">MALWARE AVANCE</text>
  <text x="520" y="668" font-family="Arial, sans-serif" font-size="24" font-weight="700" fill="#687382">infrastructure, supervision, segmentation</text>
</svg>
